HIERARCHY
ROOT hip
{
	OFFSET 0.000000 0.000000 0.000000 
	CHANNELS 6 Xposition Yposition Zposition Xrotation Zrotation Yrotation
	JOINT abdomen
	{
		OFFSET 0.000000 3.402643 0.000000 
		CHANNELS 3 Xrotation Zrotation Yrotation
		JOINT chest
		{
			OFFSET 0.000000 8.438565 -0.680529 
			CHANNELS 3 Xrotation Zrotation Yrotation
			JOINT neck
			{
				OFFSET 0.000000 10.207942 -0.272212 
				CHANNELS 3 Xrotation Zrotation Yrotation
				JOINT head
				{
					OFFSET 0.000000 3.130431 0.000000 
					CHANNELS 3 Xrotation Zrotation Yrotation
					End Site
					{
						OFFSET 0.000000 3.130435 0.000000 
					}
				}
			}
			JOINT lCollar
			{
				OFFSET 3.470700 6.669187 -0.816635 
				CHANNELS 3 Yrotation Zrotation Xrotation
				JOINT lShldr
				{
					OFFSET 3.198488 0.000000 0.000000 
					CHANNELS 3 Zrotation Yrotation Xrotation
					JOINT lForeArm
					{
						OFFSET 10.139888 0.000000 0.000000 
						CHANNELS 3 Yrotation Zrotation Xrotation
						JOINT lHand
						{
							OFFSET 8.370511 0.000000 0.000000 
							CHANNELS 3 Zrotation Yrotation Xrotation
							End Site
							{
								OFFSET 4.083176 0.000000 0.000000 
							}
						}
					}
				}
			}
			JOINT rCollar
			{
				OFFSET -3.470700 6.669187 -0.816635 
				CHANNELS 3 Yrotation Zrotation Xrotation
				JOINT rShldr
				{
					OFFSET -3.198488 0.000000 0.000000 
					CHANNELS 3 Zrotation Yrotation Xrotation
					JOINT rForeArm
					{
						OFFSET -10.139888 0.000000 0.000000 
						CHANNELS 3 Yrotation Zrotation Xrotation
						JOINT rHand
						{
							OFFSET -8.370511 0.000000 0.000000 
							CHANNELS 3 Zrotation Yrotation Xrotation
							End Site
							{
								OFFSET -4.083176 0.000000 0.000000 
							}
						}
					}
				}
			}
		}
	}
	JOINT lThigh
	{
		OFFSET 5.308129 -1.633274 1.361059 
		CHANNELS 3 Xrotation Zrotation Yrotation
		JOINT lShin
		{
			OFFSET -2.041588 -20.007561 0.000000 
			CHANNELS 3 Xrotation Zrotation Yrotation
			JOINT lFoot
			{
				OFFSET 0.000000 -19.190928 -1.224953 
				CHANNELS 3 Xrotation Yrotation Zrotation
				End Site
				{
					OFFSET 0.000000 -2.449906 4.627600 
				}
			}
		}
	}
	JOINT rThigh
	{
		OFFSET -5.308129 -1.633274 1.361059 
		CHANNELS 3 Xrotation Zrotation Yrotation
		JOINT rShin
		{
			OFFSET 2.041588 -20.007561 0.000000 
			CHANNELS 3 Xrotation Zrotation Yrotation
			JOINT rFoot
			{
				OFFSET 0.000000 -19.190928 -1.224953 
				CHANNELS 3 Xrotation Yrotation Zrotation
				End Site
				{
					OFFSET 0.000000 -2.449906 4.627600 
				}
			}
		}
	}
}
MOTION
Frames: 11
Frame Time: 0.033333
88.261177 52.724575 -57.084698 -2.656250 -6.875000 108.573051 22.187357 -8.441108 -6.428393 -17.529297 10.917969 1.876849 51.063168 8.107644 2.471410 -38.984379 10.263672 -20.712894 2.000000 -2.000000 0.000000 -86.181641 14.853515 -1.169372 -49.706959 -1.853182 -1.971208 0.900311 61.696552 -2.097647 -2.000000 2.000000 0.000000 73.203125 4.814453 -14.579257 73.031624 0.593845 -2.856910 83.192719 -27.762251 -70.268715 -2.260497 1.187492 6.340373 20.374395 -5.057993 -2.158759 -6.462505 8.148893 1.989742 -7.827045 -7.592853 -0.311998 16.312960 4.949341 1.406274 -3.833465 -15.671103 -1.934174 
88.238960 52.700356 -57.276905 -2.490234 -6.875001 107.685547 22.216888 -8.513352 -6.654929 -17.539064 10.742188 1.669922 51.063168 8.107644 2.471410 -38.457031 10.214844 -20.986332 2.000000 -2.000000 0.000000 -85.546875 13.789062 0.351562 -49.521690 -1.981057 -1.983623 0.900280 61.520771 -2.078127 -2.000000 2.000000 0.000000 72.177734 3.339844 -12.675212 73.903862 0.395320 -2.975953 82.258888 -26.013912 -69.935417 -1.901430 0.974482 6.838475 20.386332 -5.501610 -1.909924 -6.900516 8.051718 2.045135 -7.995865 -7.771410 0.011917 16.483355 4.762079 1.571535 -3.651424 -15.270367 -2.308340 
88.240814 52.643852 -57.455109 -2.314453 -6.875001 106.766411 22.237328 -8.424661 -6.807796 -17.724609 10.585938 1.408044 51.063168 8.107644 2.471410 -38.457031 10.214844 -21.328127 2.000000 -2.000000 0.000000 -84.960938 12.695313 2.033398 -49.530212 -1.802161 -1.935078 0.726607 61.520798 -2.378016 -2.000000 2.000000 0.000000 70.996094 2.041015 -11.112933 74.768471 0.367034 -3.163435 81.495590 -24.422628 -69.404457 -1.717098 0.701902 7.725166 20.211876 -5.508015 -1.914893 -6.765996 7.734656 1.827311 -7.975718 -7.956287 0.199938 16.469383 4.516849 1.530154 -3.442196 -14.666698 -2.289619 
88.274490 52.595589 -57.599297 -2.314453 -7.031250 105.907005 22.258127 -8.345119 -6.964104 -17.734377 10.410156 1.376953 51.063168 8.107644 2.471410 -38.798828 10.244140 -21.550995 2.000000 -2.000000 0.000000 -84.199219 11.572266 3.703133 -49.521671 -1.990806 -1.983055 1.195808 61.305969 -2.160390 -2.000000 2.000000 0.000000 69.453125 0.595703 -9.218648 76.001350 0.137323 -2.912651 80.086006 -22.969652 -68.907448 -1.311590 0.463755 8.383123 20.017630 -5.519308 -1.860547 -7.079550 7.850637 1.539867 -8.161557 -8.161672 0.751083 16.469381 4.516857 1.530155 -3.281356 -13.956670 -2.467815 
88.303421 52.548084 -57.717674 -2.128906 -7.031250 105.009766 22.285931 -8.399186 -7.182330 -17.919922 10.244141 1.134549 51.063168 8.107644 2.471410 -39.160164 10.292969 -21.962891 2.000000 -2.000000 0.000000 -84.003906 10.634766 5.224609 -49.521671 -1.990806 -1.983055 1.196038 61.130188 -2.160398 -2.000000 2.000000 0.000000 68.095703 -0.839844 -7.968730 77.243690 0.444067 -2.973133 79.386604 -21.509731 -68.642067 -1.161845 0.273425 8.549154 19.831280 -5.531132 -1.865488 -7.250368 8.376044 1.482520 -8.483185 -8.376006 0.940042 16.825804 4.508458 1.556707 -3.442396 -13.731085 -2.794746 
88.339058 52.517883 -57.809895 -1.972656 -7.031250 104.119904 22.305824 -8.310559 -7.335222 -17.929689 9.902344 0.888672 51.063168 8.107644 2.471410 -39.853516 10.546874 -22.478683 2.000000 -2.000000 0.000000 -83.154297 9.111328 7.648032 -49.697979 -1.991944 -2.002546 1.205206 60.778629 -2.141148 -2.000000 2.000000 0.000000 66.738281 -2.568359 -6.240670 78.821472 0.377347 -3.172618 78.620865 -20.721224 -67.973633 -1.037640 0.132105 8.728931 19.831276 -5.531145 -1.865490 -7.426090 9.352434 1.151147 -8.524827 -8.407715 1.489944 16.826101 4.508541 1.546985 -3.121700 -13.267969 -3.013344 
88.379097 52.497173 -57.870071 -1.972656 -7.031250 103.416779 22.325396 -8.395487 -7.554552 -18.125002 9.736329 0.644531 51.063168 8.107644 2.471410 -40.556641 10.625000 -23.105471 2.000000 -2.000000 0.000000 -82.695313 7.753906 9.951173 -50.049824 -1.982764 -2.012860 0.865120 60.261005 -2.487283 -2.000000 2.000000 0.000000 65.048828 -4.560547 -5.391400 81.288582 0.271697 -2.699489 78.389763 -19.650974 -67.622536 -0.936477 -0.234723 8.563319 19.846540 -5.510756 -1.873791 -7.710231 10.229111 0.261432 -8.733454 -8.607275 2.377764 17.191534 4.916975 1.678818 -3.477502 -13.214760 -3.660824 
88.302376 52.445351 -57.915207 -1.787109 -7.031250 102.851563 22.354654 -8.306911 -7.707449 -18.134768 9.570313 0.439441 51.063168 8.107644 2.471410 -41.269531 10.703125 -23.583986 2.000000 -2.000000 0.000000 -82.324219 6.728516 11.680833 -50.225029 -1.873818 -1.989878 0.812503 59.919212 -2.291649 -2.000000 2.000000 0.000000 63.349609 -7.382812 -4.873047 84.792068 -0.025028 -2.980711 77.993805 -20.332319 -66.378922 -1.009557 -0.402001 8.195926 19.849949 -5.537210 -1.868165 -7.936545 10.821471 -0.086975 -9.066093 -8.607975 2.221314 17.537073 4.488304 1.629486 -1.903302 -12.762864 -3.064230 
88.247070 52.403984 -57.949345 -1.787109 -7.031250 102.851563 22.364233 -8.218355 -7.860364 -18.320314 9.404297 0.195313 51.063168 8.107644 2.471410 -41.982422 10.781249 -24.062504 2.000000 -2.000000 0.000000 -82.548828 6.093750 13.252991 -50.577133 -1.865206 -2.009938 0.251428 59.597210 -2.731181 -2.000000 2.000000 0.000000 61.455078 -10.595703 -4.414062 88.309052 -0.158698 -3.037334 76.937126 -20.984982 -65.457901 -0.749829 -0.634747 7.830225 19.828770 -5.539342 -1.876508 -7.846768 10.935935 -0.482645 -9.311609 -8.648380 2.752672 17.710907 4.478147 1.641895 -1.011070 -12.482519 -2.897877 
88.167564 52.355614 -57.960110 -1.611328 -7.031250 102.996857 22.391916 -8.290848 -8.083974 -18.339844 9.238281 0.148052 51.063168 8.107644 2.471410 -42.861328 10.878907 -24.550783 2.000000 -2.000000 0.000000 -82.685547 6.005859 14.571334 -50.754032 -1.975289 -2.052410 0.020821 58.913830 -2.757334 -2.000000 2.000000 0.000000 59.677734 -13.857422 -3.847656 92.019035 0.220051 -3.328360 74.382706 -21.776260 -64.269432 -0.790355 -0.810486 7.646180 20.036797 -5.559430 -1.888046 -7.716161 11.125481 -0.589394 -9.491565 -8.847162 3.306843 18.065527 4.468956 1.668201 0.212575 -12.781585 -2.188984 
88.167564 52.372879 -57.954437 -1.611328 -7.031250 103.182396 22.410860 -8.202347 -8.236907 -18.515627 9.072267 -0.087891 51.063168 8.107644 2.471410 -43.789066 10.800780 -25.146486 2.000000 -2.000000 0.000000 -83.037109 6.083984 15.625000 -50.929810 -1.975289 -2.052410 -0.039889 59.109207 -2.550268 -2.000000 2.000000 0.000000 57.714840 -17.265625 -2.509766 95.350899 -0.098511 -3.063187 70.575966 -23.045794 -62.678181 -0.801803 -0.790360 7.501335 20.034515 -5.526153 -1.911993 -7.753625 10.986263 -0.888003 -9.714011 -8.689243 3.500450 18.754065 4.448385 1.709882 0.211917 -13.189619 -1.801856 
